<?xml version="1.0" encoding="UTF-8"?><svg id="a" xmlns="http://www.w3.org/2000/svg" width="237.16" height="20.51" viewBox="0 0 237.16 20.51"><defs><style>.b{fill:#fff;}.c{fill:#eb0028;}</style></defs><g><path class="b" d="M43.3,.23c.4,0,.48,.05,.48,1.46v1.3c0,1.36-.11,1.52-.48,1.52h-4.52v15.25c0,.35-.43,.43-1.94,.43h-.8c-1.54,0-1.81-.08-1.81-.43V4.51h-4.52c-.37,0-.48-.11-.48-1.52V1.69c0-1.46,.08-1.46,.48-1.46h13.59Zm8.12,.43c0-.29-.43-.43-1.89-.43h-.85c-1.54,0-1.81,.13-1.81,.43V19.76c0,.35,.27,.43,1.81,.43h.85c1.46,0,1.89-.08,1.89-.43V.65h0Zm22.09-.42h-1.33c-1.7,0-1.81,.19-1.94,.48l-2.63,6.33c-.88,2.1-1.78,4.36-2.13,5.54-.32-1.17-.9-2.74-2.13-5.64l-2.63-6.23c-.16-.37-.83-.48-2.26-.48h-1.49c-1.46,0-1.76,.13-1.76,.43V19.76c0,.35,.29,.43,1.81,.43h.83c1.49,0,1.92-.08,1.92-.43V8.42h.11s.13,.53,.35,1.01l3.03,7.11c.13,.32,.29,.45,1.7,.45h.9c1.44,0,1.54-.11,1.68-.45l2.77-6.84c.27-.64,.45-1.28,.45-1.28h.11v11.34c0,.35,.29,.43,1.86,.43h.8c1.46,0,1.89-.08,1.89-.43V.65c0-.29-.43-.43-1.89-.43h-.02Z"/><path class="c" d="M22.74,4.5H1.15c-.32,0-.61-.13-.81-.34s-.34-.49-.34-.81V1.38c0-.32,.13-.6,.34-.81S.83,.23,1.15,.23H22.74c.32,0,.61,.13,.82,.34s.33,.49,.33,.81v1.97c0,.31-.13,.6-.33,.81s-.5,.34-.82,.34Zm-13.18,3.57H1.15c-.32,0-.6,.13-.81,.34s-.34,.5-.34,.81v1.97c0,.32,.13,.6,.33,.81,.21,.21,.5,.34,.81,.34H9.55v-4.27h0Zm14,.34c-.21-.21-.5-.34-.82-.34H14.33v4.27h8.41c.32,0,.61-.13,.82-.34s.33-.49,.33-.81v-1.97c0-.31-.13-.6-.33-.81Zm0,7.84c-.21-.21-.5-.34-.82-.34H14.33v4.27h8.41c.32,0,.61-.13,.82-.34,.21-.21,.33-.49,.33-.81v-1.97c0-.31-.13-.6-.33-.81Zm-14-.34H1.15c-.32,0-.6,.13-.81,.34-.21,.21-.34,.5-.34,.81v1.97c0,.32,.13,.6,.33,.81,.21,.21,.5,.34,.81,.34H9.55v-4.27h0Z"/></g><g><path class="b" d="M83.4,.23h11.91c.28,0,.33,.11,.33,.97v.17c0,.86-.06,1-.33,1h-9.25v6.65h7.87c.25,0,.33,.11,.33,.97v.17c0,.86-.08,1-.33,1h-7.87v6.9h9.36c.28,0,.33,.08,.33,.97v.14c0,.86-.06,1.03-.33,1.03h-12.02s0-19.97,0-19.97Z"/><path class="b" d="M99.44,19.91V.57c0-.28,.08-.3,1.05-.3h.22c1.19,0,1.3,.03,1.52,.33l6.84,10c1.61,2.33,2.96,4.38,3.96,5.98-.03-1.91-.06-4.4-.06-6.29V.57c0-.28,.11-.3,1.08-.3h.22c.97,0,1.14,.03,1.14,.3V19.91c0,.28-.08,.3-1.08,.3h-.19c-1.16,0-1.3-.03-1.5-.33l-6.84-10c-1.47-2.11-2.83-4.13-3.99-5.93,.03,2.05,.06,4.93,.06,6.76v9.2c0,.28-.11,.3-1.11,.3h-.19c-1.05,0-1.14-.03-1.14-.3h.01Z"/><path class="b" d="M124.18,19.91V2.4h-5.79c-.25,0-.33-.14-.33-1v-.17c0-.83,.06-.97,.33-.97h14.24c.28,0,.33,.14,.33,1v.14c0,.86-.08,1-.33,1h-5.79V19.91c0,.28-.22,.3-1.25,.3h-.25c-1,0-1.16-.06-1.16-.3Z"/><path class="b" d="M135.59,.27h11.91c.28,0,.33,.11,.33,.97v.17c0,.86-.06,1-.33,1h-9.25v6.65h7.87c.25,0,.33,.11,.33,.97v.17c0,.86-.08,1-.33,1h-7.87v6.9h9.36c.28,0,.33,.08,.33,.97v.14c0,.86-.06,1.03-.33,1.03h-12.02V.27Z"/><path class="b" d="M164.76,20.21h-.75c-.97,0-1.16-.03-1.36-.33l-3.46-5.68c-1.22-1.99-1.63-2.13-3.6-2.13h-1.3v7.84c0,.28-.19,.3-1.22,.3h-.28c-1.03,0-1.16-.06-1.16-.3V.27h5.07c5.21,0,8.14,1.52,8.14,5.57,0,3.08-1.75,4.93-4.68,5.82,.5,.39,.94,1,1.64,2.08l3.82,6.07c.19,.31-.08,.42-.86,.42v-.02Zm-2.66-14.21c0-2.77-1.83-3.6-5.15-3.6h-2.66v7.56h2.8c3.13,0,5.01-1.19,5.01-3.96Z"/><path class="b" d="M168.69,19.91V.27h4.65c5.1,0,8.42,1.44,8.42,6.07,0,4.24-2.94,6.4-7.51,6.4-.86,0-1.88-.06-2.91-.19v7.37c0,.28-.19,.3-1.22,.3h-.28c-1.03,0-1.16-.06-1.16-.3h.01Zm10.39-13.5c0-3.19-2.27-4.02-5.6-4.02h-2.13V10.43c.94,.14,1.99,.17,2.6,.17,3.35,0,5.13-1.39,5.13-4.18Z"/><path class="b" d="M197.89,20.21h-.75c-.97,0-1.16-.03-1.36-.33l-3.46-5.68c-1.22-1.99-1.64-2.13-3.6-2.13h-1.3v7.84c0,.28-.19,.3-1.22,.3h-.28c-1.03,0-1.16-.06-1.16-.3V.27h5.07c5.21,0,8.14,1.52,8.14,5.57,0,3.08-1.75,4.93-4.68,5.82,.5,.39,.94,1,1.64,2.08l3.82,6.07c.19,.31-.08,.42-.86,.42v-.02Zm-2.66-14.21c0-2.77-1.83-3.6-5.15-3.6h-2.66v7.56h2.8c3.13,0,5.01-1.19,5.01-3.96Z"/><path class="b" d="M201.96,19.91V.57c0-.25,.14-.3,1.16-.3h.28c1.03,0,1.22,.03,1.22,.3V19.91c0,.28-.19,.3-1.22,.3h-.28c-1.03,0-1.16-.06-1.16-.3Z"/><path class="b" d="M208.3,18.8c-.25-.19-.3-.36,.11-1.11l.17-.3c.33-.61,.5-.69,.75-.55,1.47,.89,3.19,1.47,4.9,1.47,2.77,0,4.49-1.38,4.49-3.43,0-1.75-1.14-2.47-4.57-4.02-3.66-1.66-5.13-3.1-5.13-5.62,0-3.21,2.91-5.24,6.46-5.24,1.97,0,3.66,.47,5.07,1.39,.3,.19,.3,.3-.06,1.03l-.14,.28c-.36,.72-.47,.75-.78,.58-1.39-.72-2.66-1.11-4.02-1.11-2.24,0-3.91,1.19-3.91,2.94,0,1.63,1.16,2.41,4.13,3.8,3.66,1.72,5.57,3.05,5.57,5.98,0,3.3-2.66,5.62-6.98,5.62-2.38,0-4.85-.75-6.07-1.69v-.02Z"/><path class="b" d="M224.81,.27h11.91c.28,0,.33,.11,.33,.97v.17c0,.86-.06,1-.33,1h-9.25v6.65h7.87c.25,0,.33,.11,.33,.97v.17c0,.86-.08,1-.33,1h-7.87v6.9h9.36c.28,0,.33,.08,.33,.97v.14c0,.86-.06,1.03-.33,1.03h-12.02V.27Z"/></g></svg>
